<svg width="153" height="39" viewBox="0 0 153 39" fill="none" xmlns="http://www.w3.org/2000/svg">
<g clip-path="url(#clip0_3_9526)">
<path d="M142.951 1.05237H9.62822C4.83912 1.05237 0.956787 4.93496 0.956787 9.72437V29.3719C0.956787 34.1613 4.83912 38.0439 9.62822 38.0439H142.951C147.74 38.0439 151.623 34.1613 151.623 29.3719V9.72437C151.623 4.93496 147.74 1.05237 142.951 1.05237Z" fill="white"/>
<path d="M142.951 1.05237H9.62822C4.83912 1.05237 0.956787 4.93496 0.956787 9.72437V29.3719C0.956787 34.1613 4.83912 38.0439 9.62822 38.0439H142.951C147.74 38.0439 151.623 34.1613 151.623 29.3719V9.72437C151.623 4.93496 147.74 1.05237 142.951 1.05237Z" stroke="#FF6154" stroke-width="0.845638"/>
<path d="M14.478 21.0125L11.9987 26.3001C11.9211 26.4599 12.0033 26.5603 12.2636 26.5101L14.2816 26.0717C14.3216 26.0577 14.3656 26.0611 14.4029 26.081C14.4402 26.1011 14.4674 26.1358 14.478 26.1767L15.3866 28.0397C15.4733 28.2407 15.5738 28.2818 15.6514 28.1219L18.2904 22.5878L14.478 21.0125Z" fill="#FF6154"/>
<path d="M22.1194 21.0125L24.5986 26.3001C24.6809 26.4599 24.5941 26.5603 24.3338 26.5101L22.3157 26.0717C22.2758 26.0583 22.232 26.0619 22.1948 26.0817C22.1576 26.1016 22.1303 26.1361 22.1194 26.1767L21.2108 28.0398C21.124 28.2407 21.0282 28.2818 20.946 28.1219L18.3069 22.5878L22.1194 21.0125Z" fill="#FF6154"/>
<path d="M17.5573 24.1272C17.5573 24.1317 17.5482 24.1272 17.5391 24.1272C16.1556 23.9738 14.8586 23.378 13.8407 22.4285C13.8362 22.424 13.8225 22.4194 13.8271 22.4148L13.9412 22.1728C13.9457 22.1637 13.9549 22.1865 13.9595 22.1911C14.9366 23.0997 16.2926 23.6705 17.6806 23.8395C17.6851 23.8395 17.6942 23.8395 17.6942 23.844L17.5573 24.1272Z" fill="#B35454"/>
<path d="M18.2996 23.8713C21.8879 23.8713 24.7967 20.9623 24.7967 17.3737C24.7967 13.7853 21.8879 10.8762 18.2996 10.8762C14.7113 10.8762 11.8025 13.7853 11.8025 17.3737C11.8025 20.9623 14.7113 23.8713 18.2996 23.8713Z" fill="#F0CD0A"/>
<path d="M18.3009 22.9766C21.395 22.9766 23.9032 20.4683 23.9032 17.374C23.9032 14.2798 21.395 11.7714 18.3009 11.7714C15.2069 11.7714 12.6987 14.2798 12.6987 17.374C12.6987 20.4683 15.2069 22.9766 18.3009 22.9766Z" fill="#D2B309"/>
<path d="M18.4529 22.9553C21.446 22.9553 23.8724 20.5286 23.8724 17.5353C23.8724 14.5419 21.446 12.1154 18.4529 12.1154C15.4597 12.1154 13.0332 14.5419 13.0332 17.5353C13.0332 20.5286 15.4597 22.9553 18.4529 22.9553Z" fill="#E3C101"/>
<path fill-rule="evenodd" clip-rule="evenodd" d="M18.2695 20.0159H19.6014V14.7784H18.2695L16.9375 15.6859V16.8328L18.2005 15.9798H18.2695V20.0159Z" fill="white"/>
<path d="M19.8257 12.7896C21.9048 13.286 23.389 15.1205 23.4404 17.2576C23.4919 19.3947 22.0978 21.2984 20.0448 21.8944C21.305 20.9309 22.1405 19.2871 22.1405 17.4197C22.1405 15.4471 21.2091 13.7256 19.8257 12.7896Z" fill="white" fill-opacity="0.2"/>
<path d="M19.0434 24.127C19.048 24.1316 19.0571 24.127 19.0617 24.127C20.4817 23.9489 21.7875 23.3782 22.7691 22.4376C22.7737 22.4329 22.7873 22.4284 22.7829 22.4238L22.6687 22.1818C22.6641 22.1726 22.655 22.1955 22.6504 22.2001C21.6733 23.1087 20.3127 23.6703 18.9202 23.8394C18.9156 23.8394 18.9065 23.8394 18.9065 23.8439L19.0434 24.127Z" fill="#B35454"/>
<path d="M31.7178 15.4153V10.6852H33.5838C33.9425 10.6852 34.2482 10.7537 34.5007 10.8907C34.7532 11.0263 34.9457 11.2149 35.0781 11.4566C35.212 11.6968 35.279 11.974 35.279 12.288C35.279 12.6022 35.2112 12.8793 35.0757 13.1196C34.9403 13.3598 34.744 13.5469 34.4868 13.6808C34.2312 13.8147 33.9218 13.8817 33.5584 13.8817H32.369V13.0803H33.3968C33.5892 13.0803 33.7478 13.0472 33.8725 12.981C33.9988 12.9132 34.0927 12.8201 34.1543 12.7015C34.2174 12.5814 34.249 12.4436 34.249 12.288C34.249 12.1311 34.2174 11.994 34.1543 11.877C34.0927 11.7584 33.9988 11.6668 33.8725 11.6021C33.7463 11.5359 33.5861 11.5028 33.3921 11.5028H32.7177V15.4153H31.7178ZM35.9286 15.4153V10.6852H37.7946C38.1518 10.6852 38.4567 10.7491 38.7092 10.8769C38.9633 11.0031 39.1565 11.1826 39.2889 11.415C39.4228 11.646 39.4898 11.9177 39.4898 12.2304C39.4898 12.5444 39.422 12.8146 39.2866 13.0411C39.1511 13.2658 38.9547 13.4383 38.6976 13.5584C38.4421 13.6785 38.1326 13.7386 37.7692 13.7386H36.5198V12.9348H37.6076C37.7985 12.9348 37.9571 12.9086 38.0833 12.8563C38.2095 12.8039 38.3035 12.7254 38.3651 12.6207C38.4282 12.516 38.4597 12.3858 38.4597 12.2304C38.4597 12.0733 38.4282 11.9409 38.3651 11.833C38.3035 11.7253 38.2088 11.6437 38.081 11.5882C37.9548 11.5313 37.7954 11.5028 37.6029 11.5028H36.9286V15.4153H35.9286ZM38.4829 13.2627L39.6584 15.4153H38.5545L37.4043 13.2627H38.4829ZM44.543 13.0503C44.543 13.5661 44.4452 14.0049 44.2497 14.3668C44.0557 14.7286 43.7909 15.005 43.4553 15.196C43.1211 15.3854 42.7454 15.48 42.3282 15.48C41.9079 15.48 41.5306 15.3846 41.1966 15.1937C40.8624 15.0027 40.5984 14.7263 40.4043 14.3645C40.2104 14.0026 40.1133 13.5645 40.1133 13.0503C40.1133 12.5345 40.2104 12.0956 40.4043 11.7337C40.5984 11.3719 40.8624 11.0963 41.1966 10.9069C41.5306 10.716 41.9079 10.6205 42.3282 10.6205C42.7454 10.6205 43.1211 10.716 43.4553 10.9069C43.7909 11.0963 44.0557 11.3719 44.2497 11.7337C44.4452 12.0956 44.543 12.5345 44.543 13.0503ZM43.5291 13.0503C43.5291 12.7161 43.4791 12.4344 43.379 12.205C43.2805 11.9755 43.1411 11.8016 42.961 11.683C42.7808 11.5644 42.5699 11.5051 42.3282 11.5051C42.0865 11.5051 41.8755 11.5644 41.6953 11.683C41.5152 11.8016 41.3751 11.9755 41.2751 12.205C41.1765 12.4344 41.1272 12.7161 41.1272 13.0503C41.1272 13.3844 41.1765 13.6662 41.2751 13.8956C41.3751 14.125 41.5152 14.2991 41.6953 14.4176C41.8755 14.5362 42.0865 14.5955 42.3282 14.5955C42.5699 14.5955 42.7808 14.5362 42.961 14.4176C43.1411 14.2991 43.2805 14.125 43.379 13.8956C43.4791 13.6662 43.5291 13.3844 43.5291 13.0503ZM46.9605 15.4153H45.2838V10.6852H46.9743C47.4501 10.6852 47.8596 10.7798 48.203 10.9692C48.5464 11.1571 48.8104 11.4274 48.9952 11.7799C49.1814 12.1326 49.2746 12.5545 49.2746 13.0456C49.2746 13.5384 49.1814 13.9619 48.9952 14.3159C48.8104 14.6701 48.5448 14.9418 48.1984 15.1313C47.8534 15.3207 47.4409 15.4153 46.9605 15.4153ZM46.2838 14.5585H46.919C47.2145 14.5585 47.4632 14.5061 47.6649 14.4014C47.8681 14.2952 48.0206 14.1312 48.1221 13.9095C48.2253 13.6862 48.2769 13.3983 48.2769 13.0456C48.2769 12.6961 48.2253 12.4105 48.1221 12.1887C48.0206 11.9671 47.8689 11.8038 47.6672 11.6991C47.4655 11.5944 47.2169 11.542 46.9212 11.542H46.2838V14.5585ZM52.9369 10.6852H53.9369V13.757C53.9369 14.102 53.8546 14.4038 53.6898 14.6624C53.5266 14.9211 53.298 15.1228 53.0038 15.2676C52.7098 15.4108 52.3673 15.4823 51.9761 15.4823C51.5836 15.4823 51.2402 15.4108 50.9461 15.2676C50.652 15.1228 50.4234 14.9211 50.2602 14.6624C50.097 14.4038 50.0154 14.102 50.0154 13.757V10.6852H51.0154V13.6715C51.0154 13.8517 51.0546 14.0118 51.1331 14.1519C51.2133 14.2921 51.3257 14.4022 51.4704 14.4823C51.6151 14.5624 51.7837 14.6024 51.9761 14.6024C52.1702 14.6024 52.3387 14.5624 52.4819 14.4823C52.6266 14.4022 52.7383 14.2921 52.8168 14.1519C52.8969 14.0118 52.9369 13.8517 52.9369 13.6715V10.6852ZM58.933 12.3413H57.9214C57.9029 12.2104 57.8652 12.0941 57.8082 11.9925C57.7512 11.8893 57.6781 11.8016 57.5889 11.7292C57.4995 11.6568 57.3963 11.6013 57.2794 11.5628C57.1639 11.5243 57.0384 11.5051 56.9029 11.5051C56.6581 11.5051 56.4449 11.5659 56.2631 11.6875C56.0815 11.8077 55.9406 11.9832 55.8405 12.2142C55.7405 12.4436 55.6904 12.7223 55.6904 13.0503C55.6904 13.3874 55.7405 13.6708 55.8405 13.9002C55.9422 14.1296 56.0838 14.3028 56.2655 14.4199C56.4471 14.5369 56.6573 14.5955 56.8959 14.5955C57.03 14.5955 57.1539 14.5777 57.2678 14.5423C57.3833 14.5069 57.4857 14.4553 57.5749 14.3875C57.6643 14.3183 57.7382 14.2344 57.7967 14.1358C57.8567 14.0373 57.8983 13.9249 57.9214 13.7986L58.933 13.8032C58.9068 14.0203 58.8414 14.2297 58.7367 14.4315C58.6335 14.6316 58.4942 14.811 58.3186 14.9696C58.1447 15.1266 57.9368 15.2513 57.6951 15.3437C57.4549 15.4346 57.1831 15.48 56.8798 15.48C56.458 15.48 56.0808 15.3846 55.7481 15.1937C55.4171 15.0027 55.1554 14.7263 54.9629 14.3645C54.772 14.0026 54.6765 13.5645 54.6765 13.0503C54.6765 12.5345 54.7735 12.0956 54.9676 11.7337C55.1615 11.3719 55.4248 11.0963 55.7574 10.9069C56.09 10.716 56.4641 10.6205 56.8798 10.6205C57.1539 10.6205 57.4079 10.659 57.642 10.736C57.8775 10.8129 58.0861 10.9254 58.2679 11.0732C58.4495 11.2195 58.5973 11.3988 58.7113 11.6114C58.8268 11.8238 58.9007 12.0671 58.933 12.3413ZM59.4699 11.5097V10.6852H63.3545V11.5097H61.9064V15.4153H60.918V11.5097H59.4699ZM65.4995 15.4153V10.6852H66.4994V12.6368H68.5296V10.6852H69.5272V15.4153H68.5296V13.4614H66.4994V15.4153H65.4995ZM73.2733 10.6852H74.2733V13.757C74.2733 14.102 74.1909 14.4038 74.0262 14.6624C73.8629 14.9211 73.6343 15.1228 73.3402 15.2676C73.0461 15.4108 72.7036 15.4823 72.3125 15.4823C71.9199 15.4823 71.5765 15.4108 71.2825 15.2676C70.9884 15.1228 70.7597 14.9211 70.5966 14.6624C70.4334 14.4038 70.3517 14.102 70.3517 13.757V10.6852H71.3517V13.6715C71.3517 13.8517 71.391 14.0118 71.4695 14.1519C71.5496 14.2921 71.662 14.4022 71.8067 14.4823C71.9514 14.5624 72.1201 14.6024 72.3125 14.6024C72.5066 14.6024 72.6751 14.5624 72.8183 14.4823C72.963 14.4022 73.0747 14.2921 73.1532 14.1519C73.2333 14.0118 73.2733 13.8517 73.2733 13.6715V10.6852ZM79.0522 10.6852V15.4153H78.1885L76.1307 12.4382H76.0961V15.4153H75.0961V10.6852H75.9737L78.0153 13.66H78.0568V10.6852H79.0522ZM79.6983 11.5097V10.6852H83.5829V11.5097H82.1348V15.4153H81.1464V11.5097H79.6983Z" fill="#FF6154"/>
<path d="M31.9114 27.592L32.2626 25.8554H31.531V24.8798H32.4773L32.7504 23.6017H31.9797V22.6164H32.9553L33.3748 20.6652H34.3991L33.9796 22.6164H35.1307L35.5502 20.6652H36.5745L36.155 22.6164H36.9355V23.6017H35.9599L35.6868 24.8798H36.5062V25.8554H35.4819L35.1112 27.592H34.0869L34.4576 25.8554H33.2869L32.9357 27.592H31.9114ZM33.5016 24.8798H34.6625L34.9356 23.6017H33.765L33.5016 24.8798ZM38.1316 27.4749V26.3823H39.7315V22.4311H38.1218V21.6116C38.3364 21.5921 38.5836 21.5433 38.8632 21.4652C39.1493 21.3806 39.4356 21.2798 39.7217 21.1628C40.0079 21.0392 40.2647 20.9091 40.4923 20.7726H41.0972V26.3823H42.5898V27.4749H38.1316ZM45.6236 27.4749V20.7823H49.1062C49.5875 20.7823 49.9875 20.8734 50.3062 21.0555C50.6313 21.2311 50.8752 21.4815 51.0378 21.8067C51.2069 22.1254 51.2914 22.5058 51.2914 22.9481C51.2914 23.3904 51.2037 23.7774 51.028 24.1091C50.8589 24.4343 50.6085 24.688 50.2769 24.8701C49.9452 25.0522 49.5387 25.1432 49.0575 25.1432H47.0771V27.4749H45.6236ZM47.0771 23.953H48.8624C49.1681 23.953 49.4021 23.8652 49.5648 23.6896C49.7339 23.514 49.8184 23.2701 49.8184 22.9579C49.8184 22.7433 49.7826 22.5644 49.7111 22.4213C49.6395 22.2782 49.5323 22.1676 49.3891 22.0896C49.2526 22.0116 49.077 21.9725 48.8624 21.9725H47.0771V23.953ZM52.1466 27.4749V22.3433H53.2685L53.3758 23.1432H53.4441C53.5091 22.9741 53.5937 22.8213 53.6978 22.6847C53.8018 22.5416 53.9319 22.4278 54.088 22.3433C54.2441 22.2587 54.4262 22.2165 54.6343 22.2165C54.7449 22.2165 54.8456 22.2295 54.9366 22.2554C55.0277 22.275 55.096 22.2945 55.1415 22.314V23.5432H54.7221C54.5205 23.5432 54.3416 23.5725 54.1855 23.6311C54.0359 23.6831 53.9091 23.7676 53.8051 23.8847C53.701 24.0018 53.623 24.1449 53.5709 24.314C53.5254 24.4831 53.5026 24.6814 53.5026 24.9091V27.4749H52.1466ZM58.1181 27.592C57.5588 27.592 57.084 27.4977 56.6938 27.3091C56.3036 27.1139 56.0077 26.818 55.8061 26.4213C55.6044 26.018 55.5036 25.5139 55.5036 24.9091C55.5036 24.2912 55.6044 23.7872 55.8061 23.3969C56.0077 23.0002 56.3036 22.7075 56.6938 22.5188C57.084 22.3237 57.5588 22.2262 58.1181 22.2262C58.6904 22.2262 59.1684 22.3237 59.5521 22.5188C59.9423 22.7075 60.2382 23.0002 60.4399 23.3969C60.6415 23.7872 60.7423 24.2912 60.7423 24.9091C60.7423 25.5139 60.6415 26.018 60.4399 26.4213C60.2382 26.818 59.9423 27.1139 59.5521 27.3091C59.1684 27.4977 58.6904 27.592 58.1181 27.592ZM58.1181 26.5383C58.4172 26.5383 58.6546 26.4831 58.8303 26.3725C59.0124 26.2619 59.1456 26.0928 59.2302 25.8651C59.3147 25.6375 59.357 25.3579 59.357 25.0262V24.792C59.357 24.4603 59.3147 24.1806 59.2302 23.953C59.1456 23.7253 59.0124 23.5562 58.8303 23.4457C58.6546 23.3286 58.4172 23.2701 58.1181 23.2701C57.8254 23.2701 57.588 23.3286 57.4059 23.4457C57.2303 23.5562 57.1003 23.7253 57.0157 23.953C56.9312 24.1806 56.8889 24.4603 56.8889 24.792V25.0262C56.8889 25.3579 56.9312 25.6375 57.0157 25.8651C57.1003 26.0928 57.2303 26.2619 57.4059 26.3725C57.588 26.4831 57.8254 26.5383 58.1181 26.5383ZM63.5545 27.592C63.1318 27.592 62.7644 27.4977 62.4522 27.3091C62.1466 27.1139 61.9092 26.818 61.7401 26.4213C61.571 26.0245 61.4865 25.5172 61.4865 24.8993C61.4865 24.2814 61.571 23.7774 61.7401 23.3872C61.9156 22.9904 62.153 22.6977 62.4522 22.5091C62.7578 22.3205 63.109 22.2262 63.5058 22.2262C63.7269 22.2262 63.9317 22.2522 64.1204 22.3042C64.3155 22.3497 64.4846 22.4246 64.6277 22.5286C64.7773 22.6327 64.9041 22.7595 65.0081 22.9091H65.0666V20.4213H66.4226V27.4749H65.3106L65.2032 26.7823H65.1349C64.9658 27.0554 64.7447 27.2603 64.4716 27.3969C64.1984 27.5269 63.8927 27.592 63.5545 27.592ZM63.9838 26.4798C64.2374 26.4798 64.4423 26.4213 64.5984 26.3042C64.7609 26.1872 64.8813 26.018 64.9594 25.7969C65.0374 25.5758 65.0764 25.3124 65.0764 25.0067V24.831C65.0764 24.6034 65.0536 24.3953 65.0081 24.2067C64.9691 24.018 64.9041 23.8619 64.813 23.7383C64.722 23.6083 64.6081 23.5107 64.4716 23.4457C64.335 23.3741 64.1724 23.3383 63.9838 23.3383C63.7106 23.3383 63.4928 23.3936 63.3302 23.5042C63.1676 23.6083 63.0505 23.7709 62.979 23.9921C62.9074 24.2067 62.8717 24.4765 62.8717 24.8018V25.0262C62.8717 25.3513 62.9074 25.6213 62.979 25.8359C63.0505 26.0506 63.1676 26.2132 63.3302 26.3237C63.4928 26.4278 63.7106 26.4798 63.9838 26.4798ZM69.3336 27.592C68.8133 27.592 68.4004 27.4489 68.0947 27.1627C67.789 26.8765 67.6362 26.4148 67.6362 25.7774V22.3433H68.9922V25.553C68.9922 25.7221 69.0116 25.8651 69.0507 25.9823C69.0897 26.0928 69.145 26.1838 69.2165 26.2555C69.2946 26.327 69.3889 26.379 69.4994 26.4115C69.61 26.444 69.7336 26.4603 69.8702 26.4603C70.0718 26.4603 70.2539 26.4115 70.4165 26.314C70.579 26.2164 70.7058 26.083 70.7969 25.914C70.8879 25.7383 70.9335 25.5432 70.9335 25.3286V22.3433H72.2894V27.4749H71.1774L71.0798 26.7725H71.0115C70.8879 26.9351 70.7416 27.0782 70.5726 27.2018C70.4099 27.3254 70.2246 27.4196 70.0165 27.4847C69.8083 27.5562 69.5807 27.592 69.3336 27.592ZM75.7877 27.592C75.2414 27.592 74.7828 27.4977 74.4121 27.3091C74.0414 27.1139 73.7585 26.818 73.5634 26.4213C73.3748 26.018 73.2805 25.5139 73.2805 24.9091C73.2805 24.2912 73.3748 23.7872 73.5634 23.3969C73.7585 23.0002 74.0414 22.7043 74.4121 22.5091C74.7893 22.314 75.2478 22.2165 75.7877 22.2165C76.1388 22.2165 76.4542 22.2587 76.7339 22.3433C77.0201 22.4278 77.2672 22.5579 77.4753 22.7335C77.6834 22.9091 77.8395 23.127 77.9436 23.3872C78.0541 23.6408 78.1094 23.9432 78.1094 24.2944H76.7534C76.7534 24.0603 76.7176 23.8685 76.6461 23.7189C76.5746 23.5693 76.464 23.4555 76.3144 23.3774C76.1713 23.2994 75.9892 23.2603 75.7681 23.2603C75.508 23.2603 75.2966 23.3189 75.134 23.4359C74.9714 23.553 74.8511 23.7253 74.773 23.953C74.6951 24.1806 74.656 24.4636 74.656 24.8018V25.0262C74.656 25.3579 74.6951 25.6375 74.773 25.8651C74.8576 26.0928 74.9844 26.2651 75.1535 26.3823C75.3226 26.4928 75.5437 26.5481 75.8169 26.5481C76.0381 26.5481 76.2201 26.5091 76.3632 26.431C76.5127 26.353 76.6266 26.2359 76.7046 26.0798C76.7827 25.9237 76.8216 25.7351 76.8216 25.5139H78.1094C78.1094 25.8457 78.0541 26.1416 77.9436 26.4017C77.8395 26.6619 77.6834 26.8798 77.4753 27.0554C77.2737 27.231 77.0298 27.3643 76.7437 27.4554C76.4574 27.5465 76.1388 27.592 75.7877 27.592ZM80.6579 27.592C80.3328 27.592 80.0693 27.5335 79.8677 27.4164C79.6661 27.2993 79.5198 27.1433 79.4287 26.9481C79.3377 26.7465 79.2921 26.5253 79.2921 26.2847V23.3872H78.658V22.3433H79.3409L79.5946 20.8798H80.6481V22.3433H81.5847V23.3872H80.6481V26.0603C80.6481 26.2164 80.6839 26.3367 80.7555 26.4213C80.827 26.4993 80.944 26.5383 81.1067 26.5383H81.5847V27.4359C81.5066 27.4619 81.4156 27.4847 81.3116 27.5042C81.2074 27.5302 81.0969 27.5497 80.9798 27.5627C80.8628 27.5822 80.7555 27.592 80.6579 27.592ZM86.7363 27.592C86.177 27.592 85.7023 27.4977 85.3121 27.3091C84.9219 27.1139 84.626 26.818 84.4243 26.4213C84.2227 26.018 84.1219 25.5139 84.1219 24.9091C84.1219 24.2912 84.2227 23.7872 84.4243 23.3969C84.626 23.0002 84.9219 22.7075 85.3121 22.5188C85.7023 22.3237 86.177 22.2262 86.7363 22.2262C87.3086 22.2262 87.7866 22.3237 88.1704 22.5188C88.5606 22.7075 88.8565 23.0002 89.0581 23.3969C89.2597 23.7872 89.3606 24.2912 89.3606 24.9091C89.3606 25.5139 89.2597 26.018 89.0581 26.4213C88.8565 26.818 88.5606 27.1139 88.1704 27.3091C87.7866 27.4977 87.3086 27.592 86.7363 27.592ZM86.7363 26.5383C87.0355 26.5383 87.2729 26.4831 87.4485 26.3725C87.6306 26.2619 87.7639 26.0928 87.8485 25.8651C87.933 25.6375 87.9753 25.3579 87.9753 25.0262V24.792C87.9753 24.4603 87.933 24.1806 87.8485 23.953C87.7639 23.7253 87.6306 23.5562 87.4485 23.4457C87.2729 23.3286 87.0355 23.2701 86.7363 23.2701C86.4436 23.2701 86.2062 23.3286 86.0242 23.4457C85.8486 23.5562 85.7186 23.7253 85.634 23.953C85.5495 24.1806 85.5072 24.4603 85.5072 24.792V25.0262C85.5072 25.3579 85.5495 25.6375 85.634 25.8651C85.7186 26.0928 85.8486 26.2619 86.0242 26.3725C86.2062 26.4831 86.4436 26.5383 86.7363 26.5383ZM90.5924 27.4749V23.3872H89.8608V22.3433H90.5924V21.7774C90.5924 21.4978 90.6379 21.2506 90.729 21.036C90.8266 20.8149 90.9794 20.6424 91.1875 20.5189C91.3956 20.3953 91.672 20.3335 92.0168 20.3335C92.1143 20.3335 92.2151 20.34 92.3191 20.353C92.4297 20.366 92.5338 20.3856 92.6313 20.4116C92.7354 20.4311 92.8231 20.4539 92.8947 20.4799V21.3774H92.4069C92.2508 21.3774 92.1338 21.4164 92.0557 21.4945C91.9842 21.5725 91.9485 21.6863 91.9485 21.8359V22.3433H92.8947V23.3872H91.9485V27.4749H90.5924ZM96.9772 27.592C96.6519 27.592 96.3882 27.5335 96.1871 27.4164C95.9851 27.2993 95.8391 27.1433 95.748 26.9481C95.657 26.7465 95.6114 26.5253 95.6114 26.2847V23.3872H94.9773V22.3433H95.6598L95.914 20.8798H96.9677V22.3433H97.9038V23.3872H96.9677V26.0603C96.9677 26.2164 97.0028 26.3367 97.0749 26.4213C97.146 26.4993 97.2636 26.5383 97.4258 26.5383H97.9038V27.4359C97.826 27.4619 97.735 27.4847 97.6307 27.5042C97.5263 27.5302 97.4163 27.5497 97.2987 27.5627C97.182 27.5822 97.0749 27.592 96.9772 27.592ZM98.7802 27.4749V20.4213H100.135V22.9091H100.204C100.315 22.7726 100.445 22.6554 100.595 22.5579C100.75 22.4539 100.923 22.3725 101.111 22.314C101.307 22.2554 101.518 22.2262 101.746 22.2262C102.084 22.2262 102.379 22.288 102.634 22.4116C102.887 22.5352 103.082 22.7303 103.219 22.9969C103.362 23.2636 103.433 23.6115 103.433 24.0408V27.4749H102.077V24.2554C102.077 24.0929 102.058 23.9563 102.019 23.8457C101.979 23.7287 101.921 23.6343 101.843 23.5628C101.772 23.4847 101.68 23.4294 101.57 23.3969C101.459 23.3644 101.336 23.3481 101.2 23.3481C100.998 23.3481 100.816 23.3969 100.653 23.4945C100.49 23.5921 100.363 23.7253 100.272 23.8945C100.181 24.0636 100.135 24.2587 100.135 24.4799V27.4749H98.7802ZM106.98 27.592C106.414 27.592 105.939 27.4977 105.556 27.3091C105.172 27.1139 104.882 26.818 104.687 26.4213C104.493 26.0245 104.395 25.5205 104.395 24.9091C104.395 24.2912 104.493 23.7872 104.687 23.3969C104.882 23.0002 105.169 22.7075 105.546 22.5188C105.929 22.3237 106.398 22.2262 106.951 22.2262C107.471 22.2262 107.91 22.3205 108.267 22.5091C108.625 22.6912 108.895 22.9774 109.077 23.3677C109.259 23.7514 109.35 24.2489 109.35 24.8603V25.2115H105.77C105.783 25.5107 105.829 25.7643 105.907 25.9725C105.991 26.1806 106.118 26.3367 106.287 26.4408C106.463 26.5383 106.694 26.5871 106.98 26.5871C107.136 26.5871 107.276 26.5676 107.4 26.5286C107.529 26.4895 107.64 26.431 107.732 26.353C107.823 26.2749 107.894 26.1774 107.946 26.0603C107.998 25.9432 108.024 25.8099 108.024 25.6603H109.35C109.35 25.9855 109.292 26.2685 109.175 26.5091C109.057 26.7497 108.895 26.9514 108.688 27.1139C108.479 27.2701 108.228 27.3903 107.936 27.4749C107.65 27.553 107.331 27.592 106.98 27.592ZM105.79 24.353H107.955C107.955 24.1578 107.93 23.9887 107.878 23.8457C107.832 23.7026 107.767 23.5855 107.682 23.4945C107.598 23.4034 107.493 23.3383 107.37 23.2994C107.254 23.2538 107.12 23.2311 106.97 23.2311C106.723 23.2311 106.515 23.2734 106.346 23.3579C106.184 23.4359 106.057 23.5595 105.966 23.7287C105.881 23.8912 105.822 24.0993 105.79 24.353ZM112.377 27.4749V20.7823H115.108C115.805 20.7823 116.396 20.9026 116.884 21.1432C117.372 21.384 117.746 21.7514 118.006 22.2457C118.272 22.7335 118.406 23.3611 118.406 24.1286C118.406 24.8896 118.272 25.5172 118.006 26.0115C117.746 26.5059 117.372 26.8733 116.884 27.1139C116.396 27.3546 115.805 27.4749 115.108 27.4749H112.377ZM113.831 26.2749H115.099C115.392 26.2749 115.652 26.2327 115.88 26.1481C116.107 26.0636 116.296 25.94 116.445 25.7774C116.595 25.6083 116.708 25.4001 116.786 25.153C116.865 24.8993 116.904 24.6067 116.904 24.275V23.9823C116.904 23.6506 116.865 23.3611 116.786 23.114C116.708 22.8603 116.595 22.6522 116.445 22.4896C116.296 22.3205 116.107 22.1937 115.88 22.1091C115.652 22.018 115.392 21.9725 115.099 21.9725H113.831V26.2749ZM120.828 27.592C120.659 27.592 120.477 27.5724 120.281 27.5335C120.093 27.4944 119.914 27.4261 119.745 27.3286C119.576 27.2245 119.436 27.0782 119.325 26.8895C119.222 26.6944 119.17 26.4472 119.17 26.1481C119.17 25.7904 119.247 25.4945 119.404 25.2603C119.559 25.0262 119.78 24.8441 120.067 24.714C120.36 24.5774 120.708 24.4831 121.111 24.431C121.514 24.379 121.96 24.353 122.447 24.353V23.9725C122.447 23.8229 122.421 23.6928 122.37 23.5823C122.324 23.4717 122.239 23.3839 122.116 23.3189C121.999 23.2538 121.833 23.2213 121.619 23.2213C121.403 23.2213 121.228 23.2473 121.091 23.2994C120.961 23.3513 120.867 23.4196 120.809 23.5042C120.756 23.5823 120.731 23.67 120.731 23.7676V23.8847H119.413C119.407 23.8521 119.404 23.8229 119.404 23.7969C119.404 23.7644 119.404 23.7253 119.404 23.6798C119.404 23.3806 119.495 23.1237 119.677 22.9091C119.859 22.688 120.116 22.5188 120.447 22.4018C120.779 22.2848 121.166 22.2262 121.608 22.2262C122.083 22.2262 122.48 22.288 122.798 22.4116C123.124 22.5352 123.371 22.7173 123.54 22.9579C123.716 23.1985 123.804 23.501 123.804 23.8652V26.1968C123.804 26.314 123.836 26.4017 123.9 26.4603C123.973 26.5123 124.05 26.5383 124.135 26.5383H124.457V27.4261C124.392 27.4586 124.291 27.4912 124.155 27.5237C124.018 27.5627 123.852 27.5822 123.657 27.5822C123.468 27.5822 123.299 27.553 123.149 27.4944C123.007 27.4424 122.887 27.3676 122.789 27.2701C122.691 27.166 122.623 27.0424 122.584 26.8993H122.516C122.405 27.0359 122.268 27.1562 122.106 27.2603C121.95 27.3643 121.765 27.4456 121.55 27.5042C121.342 27.5627 121.101 27.592 120.828 27.592ZM121.287 26.5676C121.469 26.5676 121.631 26.5416 121.774 26.4895C121.917 26.431 122.038 26.3562 122.135 26.2651C122.233 26.1676 122.307 26.0506 122.359 25.914C122.418 25.7774 122.447 25.6311 122.447 25.4749V25.192C122.083 25.192 121.758 25.218 121.472 25.2701C121.186 25.3156 120.958 25.3969 120.789 25.5139C120.626 25.6311 120.545 25.7936 120.545 26.0017C120.545 26.1189 120.574 26.2196 120.633 26.3042C120.691 26.3887 120.776 26.4538 120.886 26.4993C120.997 26.5448 121.13 26.5676 121.287 26.5676ZM125.872 29.3091C125.631 29.3091 125.43 29.2895 125.267 29.2505C125.112 29.218 125.01 29.1952 124.965 29.1822V28.2651H125.56C125.722 28.2651 125.869 28.2262 125.999 28.1481C126.129 28.0766 126.243 27.979 126.341 27.8554C126.438 27.7383 126.51 27.6115 126.555 27.4749L124.545 22.3433H125.979L126.858 24.714C126.897 24.8245 126.939 24.9644 126.985 25.1335C127.036 25.296 127.088 25.4684 127.14 25.6505C127.192 25.8262 127.235 25.9823 127.267 26.1189H127.316C127.342 26.0278 127.372 25.9204 127.404 25.7969C127.436 25.6733 127.468 25.5465 127.502 25.4164C127.541 25.2863 127.577 25.1628 127.609 25.0456C127.648 24.9221 127.68 24.8148 127.707 24.7237L128.438 22.3433H129.804L128.057 27.231C127.96 27.5172 127.846 27.7839 127.716 28.031C127.593 28.2847 127.446 28.5058 127.277 28.6944C127.108 28.8895 126.906 29.0391 126.672 29.1432C126.444 29.2538 126.178 29.3091 125.872 29.3091Z" fill="#FF6154"/>
</g>
<defs>
<clipPath id="clip0_3_9526">
<rect width="151.75" height="37.94" fill="white" transform="translate(0.28125 0.578125)"/>
</clipPath>
</defs>
</svg>
